HIERARCHY
ROOT root
{
	OFFSET 0.000000 0.000000 0.000000
	CHANNELS 6 Xposition Yposition Zposition Zrotation Yrotation Xrotation
	JOINT lhip
	{
		OFFSET 0.058581 -0.082280 -0.017664
		CHANNELS 3 Zrotation Yrotation Xrotation
		JOINT lknee
		{
			OFFSET 0.043451 -0.386469 0.008037
			CHANNELS 3 Zrotation Yrotation Xrotation
			JOINT lankle
			{
				OFFSET -0.014790 -0.426874 -0.037428
				CHANNELS 3 Zrotation Yrotation Xrotation
				JOINT ltoe
				{
					OFFSET 0.041054 -0.060286 0.122042
					CHANNELS 3 Zrotation Yrotation Xrotation
					End Site
					{
						OFFSET 0.000000 0.000000 0.000000
					}
				}
			}
		}
	}
	JOINT rhip
	{
		OFFSET -0.060310 -0.090513 -0.013543
		CHANNELS 3 Zrotation Yrotation Xrotation
		JOINT rknee
		{
			OFFSET -0.043257 -0.383688 -0.004843
			CHANNELS 3 Zrotation Yrotation Xrotation
			JOINT rankle
			{
				OFFSET 0.019056 -0.420046 -0.034562
				CHANNELS 3 Zrotation Yrotation Xrotation
				JOINT rtoe
				{
					OFFSET -0.034840 -0.062106 0.130323
					CHANNELS 3 Zrotation Yrotation Xrotation
					End Site
					{
						OFFSET 0.000000 0.000000 0.000000
					}
				}
			}
		}
	}
	JOINT lowerback
	{
		OFFSET 0.004439 0.124404 -0.038385
		CHANNELS 3 Zrotation Yrotation Xrotation
		JOINT upperback
		{
			OFFSET 0.004488 0.137956 0.026820
			CHANNELS 3 Zrotation Yrotation Xrotation
			JOINT chest
			{
				OFFSET -0.002265 0.056032 0.002855
				CHANNELS 3 Zrotation Yrotation Xrotation
				JOINT lowerneck
				{
					OFFSET -0.013390 0.211636 -0.033468
					CHANNELS 3 Zrotation Yrotation Xrotation
					JOINT upperneck
					{
						OFFSET 0.010113 0.088937 0.050410
						CHANNELS 3 Zrotation Yrotation Xrotation
						End Site
						{
							OFFSET 0.000000 0.000000 0.000000
						}
					}
				}
				JOINT lclavicle
				{
					OFFSET 0.071702 0.114000 -0.018898
					CHANNELS 3 Zrotation Yrotation Xrotation
					JOINT lshoulder
					{
						OFFSET 0.122921 0.045205 -0.019046
						CHANNELS 3 Zrotation Yrotation Xrotation
						JOINT lelbow
						{
							OFFSET 0.255332 -0.015649 -0.022946
							CHANNELS 3 Zrotation Yrotation Xrotation
							JOINT lwrist
							{
								OFFSET 0.265709 0.012698 -0.007375
								CHANNELS 3 Zrotation Yrotation Xrotation
								End Site
								{
									OFFSET 0.000000 0.000000 0.000000
								}
							}
						}
					}
				}
				JOINT rclavicle
				{
					OFFSET -0.082954 0.112472 -0.023707
					CHANNELS 3 Zrotation Yrotation Xrotation
					JOINT rshoulder
					{
						OFFSET -0.113228 0.046853 -0.008472
						CHANNELS 3 Zrotation Yrotation Xrotation
						JOINT relbow
						{
							OFFSET -0.260127 -0.014369 -0.031269
							CHANNELS 3 Zrotation Yrotation Xrotation
							JOINT rwrist
							{
								OFFSET -0.269108 0.006794 -0.006027
								CHANNELS 3 Zrotation Yrotation Xrotation
								End Site
								{
									OFFSET 0.000000 0.000000 0.000000
								}
							}
						}
					}
				}
			}
		}
	}
}
MOTION
Frames: 14
Frame Time: 0.033333
0.768871 0.542924 1.004944 84.924643 -15.278384 98.323920 -16.957948 2.473213 -13.935830 -5.436416 1.044561 7.985406 3.329418 13.336376 -8.525168 0.000000 -0.000000 0.000000 -30.964579 -14.207269 -12.800951 -0.684374 -4.556591 2.731741 11.396800 -7.615124 2.409632 0.000000 -0.000000 0.000000 14.981262 -1.209495 1.235057 11.918126 -8.752722 2.531298 3.682268 3.771160 -8.148286 -4.066269 14.077157 9.505574 -3.181334 36.823694 -2.771668 -27.242964 -1.296366 7.619258 -23.364820 18.336181 31.292442 -88.253822 -43.339391 111.452094 56.784228 -25.394900 -23.936460 18.957272 -1.881101 11.570326 9.047777 -27.258017 24.266400 121.713183 37.623406 127.867600 -49.231210 39.078276 -4.270719 
0.768788 0.542963 1.004976 84.911943 -15.322433 98.384945 -17.009387 2.442075 -13.973636 -5.435470 1.045986 7.942056 3.360672 13.349429 -8.500586 0.000000 -0.000000 0.000000 -31.014828 -14.194378 -12.837347 -0.674194 -4.571736 2.689519 11.437240 -7.643566 2.422708 0.000000 -0.000000 0.000000 14.930079 -1.264687 1.154773 12.053781 -8.835767 2.930574 3.695764 3.835639 -8.426457 -3.787252 14.046251 9.587329 -3.178654 36.786380 -2.724651 -27.115467 -1.449943 7.637597 -23.665987 18.533740 31.144214 -88.126436 -43.294563 111.482066 56.765562 -25.307877 -24.009095 18.962386 -1.731747 11.702842 9.027057 -27.425476 24.164552 121.844952 37.582408 128.182341 -49.373543 38.936297 -4.414134 
0.768732 0.543047 1.004972 84.902544 -15.338564 98.422541 -17.031999 2.429636 -14.005222 -5.434697 1.054183 7.929327 3.367821 13.332935 -8.496410 0.000000 -0.000000 0.000000 -31.027528 -14.194288 -12.872480 -0.681768 -4.588456 2.676621 11.427889 -7.630132 2.441398 0.000000 -0.000000 0.000000 14.953208 -1.276157 1.207091 12.134559 -8.860183 3.017693 3.745091 3.831839 -8.495995 -3.646649 13.964058 9.620485 -3.121974 36.773889 -2.740182 -27.128449 -1.456631 7.678840 -23.775586 18.526905 31.125693 -88.061333 -43.328178 111.459888 56.748842 -25.286296 -23.991087 18.946614 -1.739094 11.729064 8.939187 -27.401109 24.166545 121.976677 37.552489 128.324431 -49.371623 38.958764 -4.403196 
0.768721 0.543197 1.004923 84.885319 -15.362561 98.458753 -17.070723 2.417946 -14.042090 -5.429062 1.072310 7.938006 3.369869 13.320973 -8.508978 0.000000 -0.000000 0.000000 -31.051072 -14.199014 -12.918646 -0.698825 -4.601046 2.688935 11.432769 -7.609278 2.440476 0.000000 -0.000000 0.000000 14.980433 -1.281124 1.277618 12.218873 -8.877863 3.121862 3.799394 3.836573 -8.579148 -3.520933 13.867997 9.655285 -3.071370 36.768486 -2.746522 -27.187817 -1.485573 7.739168 -23.862795 18.507942 31.110002 -87.974740 -43.363309 111.416756 56.807266 -25.270472 -23.965889 18.960825 -1.728257 11.776382 8.797472 -27.398727 24.190312 122.154561 37.516326 128.492959 -49.464492 39.016464 -4.425908 
0.768719 0.543293 1.004871 84.883744 -15.378809 98.476524 -17.093624 2.396948 -14.068618 -5.428574 1.082868 7.958021 3.376541 13.322137 -8.521349 0.000000 -0.000000 0.000000 -31.069575 -14.198617 -12.945467 -0.710415 -4.608746 2.709188 11.433172 -7.602837 2.436393 0.000000 -0.000000 0.000000 14.999817 -1.288799 1.317852 12.259363 -8.886604 3.169527 3.826841 3.841326 -8.616572 -3.464962 13.828793 9.678791 -3.047310 36.783785 -2.746217 -27.226556 -1.500978 7.759406 -23.895830 18.488478 31.110902 -87.921046 -43.371745 111.397253 56.822428 -25.277294 -23.940389 18.970497 -1.725050 11.802194 8.719676 -27.377420 24.197463 122.249623 37.488464 128.574616 -49.467893 39.039690 -4.428359 
0.768750 0.543412 1.004799 84.897222 -15.398965 98.492462 -17.116459 2.365720 -14.100710 -5.439781 1.084475 7.993467 3.393705 13.329952 -8.533741 0.000000 -0.000000 0.000000 -31.098244 -14.197426 -12.960752 -0.721216 -4.624155 2.727252 11.433542 -7.601295 2.436348 0.000000 -0.000000 0.000000 15.028023 -1.299054 1.356048 12.306411 -8.909338 3.224188 3.853363 3.855773 -8.664218 -3.391008 13.788192 9.748603 -2.998521 36.811406 -2.723811 -27.271136 -1.524266 7.792138 -23.927416 18.467332 31.103473 -87.862637 -43.378338 111.384570 56.809050 -25.284359 -23.917762 18.976134 -1.703348 11.826284 8.633598 -27.359130 24.201562 122.356790 37.440918 128.668267 -49.421561 39.048434 -4.409586 
0.768782 0.543532 1.004721 84.912429 -15.416240 98.507476 -17.138459 2.343266 -14.141194 -5.447104 1.094086 8.047391 3.393691 13.323722 -8.555586 0.000000 -0.000000 0.000000 -31.121690 -14.199446 -12.976494 -0.736424 -4.646400 2.750921 11.435890 -7.592396 2.422067 0.000000 -0.000000 0.000000 15.055501 -1.304974 1.385610 12.351966 -8.924130 3.277079 3.875793 3.872921 -8.720631 -3.317340 13.761005 9.835011 -2.950832 36.812893 -2.666643 -27.311284 -1.534602 7.820151 -23.944235 18.431500 31.111277 -87.816570 -43.375104 111.361668 56.845134 -25.295331 -23.895521 18.993572 -1.688053 11.870587 8.549889 -27.347615 24.216101 122.465974 37.412461 128.757989 -49.469434 39.082989 -4.424491 
0.768822 0.543659 1.004663 84.929573 -15.428367 98.508375 -17.154997 2.314941 -14.165077 -5.455074 1.085975 8.097387 3.405956 13.336491 -8.577095 0.000000 -0.000000 0.000000 -31.141451 -14.200673 -12.982296 -0.747504 -4.656892 2.778689 11.435185 -7.592902 2.410234 0.000000 -0.000000 0.000000 15.071764 -1.302405 1.410496 12.402973 -8.940014 3.335182 3.905629 3.885851 -8.764703 -3.260100 13.720701 9.923336 -2.912430 36.828539 -2.608938 -27.337689 -1.551076 7.857447 -23.986916 18.395098 31.099081 -87.777392 -43.376367 111.350886 56.881315 -25.274893 -23.892386 18.995874 -1.668621 11.923338 8.493509 -27.322004 24.221435 122.554893 37.393772 128.841811 -49.559312 39.102197 -4.465719 
0.768910 0.543815 1.004625 84.953764 -15.439958 98.497087 -17.175187 2.296566 -14.166258 -5.460286 1.073555 8.131519 3.418929 13.348464 -8.591684 0.000000 -0.000000 0.000000 -31.167350 -14.205324 -12.966644 -0.755076 -4.662559 2.798652 11.433268 -7.594420 2.396570 0.000000 -0.000000 0.000000 15.095270 -1.291637 1.432193 12.444274 -8.950930 3.385158 3.930776 3.891594 -8.792633 -3.213588 13.671823 10.009272 -2.891949 36.835325 -2.586821 -27.355812 -1.556318 7.882897 -24.016710 18.365454 31.083959 -87.752375 -43.378484 111.344108 56.846393 -25.259468 -23.869068 18.976479 -1.656651 11.950929 8.437774 -27.279745 24.220436 122.617014 37.348198 128.902189 -49.565819 39.091314 -4.469852 
0.768991 0.543987 1.004589 84.987483 -15.454383 98.490518 -17.203234 2.282041 -14.169077 -5.466658 1.043296 8.159912 3.423121 13.358307 -8.621596 0.000000 -0.000000 0.000000 -31.191653 -14.219279 -12.957651 -0.770622 -4.672104 2.829940 11.441117 -7.599248 2.372317 0.000000 -0.000000 0.000000 15.115970 -1.279882 1.462878 12.491495 -8.943699 3.409867 3.968948 3.909679 -8.798159 -3.156994 13.611973 10.086720 -2.854046 36.825082 -2.575173 -27.374609 -1.562504 7.893149 -24.067485 18.329839 31.064462 -87.710455 -43.381007 111.306251 56.970615 -25.234841 -23.890630 18.959498 -1.644508 11.962944 8.377072 -27.276759 24.213841 122.670283 37.288172 128.963795 -49.677776 39.120404 -4.528204 
0.769100 0.544103 1.004575 85.006715 -15.465122 98.477255 -17.224450 2.276727 -14.144880 -5.466545 1.035441 8.156203 3.427036 13.353818 -8.636367 0.000000 -0.000000 0.000000 -31.209660 -14.227702 -12.939757 -0.782619 -4.673569 2.847014 11.452041 -7.593717 2.363589 0.000000 -0.000000 0.000000 15.135164 -1.268783 1.493073 12.519295 -8.936219 3.433486 3.988798 3.925297 -8.816451 -3.083311 13.578689 10.155692 -2.804791 36.805917 -2.546820 -27.382923 -1.540851 7.888099 -24.092920 18.313975 31.068726 -87.703334 -43.406250 111.296249 57.027378 -25.232521 -23.894898 18.956007 -1.632040 11.990375 8.336466 -27.265300 24.239761 122.708947 37.274659 129.009269 -49.751802 39.150524 -4.571206 
0.769205 0.544189 1.004566 85.016548 -15.479335 98.469018 -17.248843 2.286955 -14.121284 -5.469052 1.025913 8.146199 3.427044 13.344060 -8.654404 0.000000 -0.000000 0.000000 -31.232926 -14.231916 -12.924216 -0.788033 -4.675260 2.855625 11.461403 -7.591902 2.352670 0.000000 -0.000000 0.000000 15.156660 -1.262252 1.518131 12.539291 -8.927751 3.447636 4.003679 3.940515 -8.820844 -3.026875 13.526343 10.219042 -2.782447 36.781017 -2.541052 -27.400978 -1.511734 7.865756 -24.099906 18.323884 31.067822 -87.700576 -43.431972 111.314277 57.031909 -25.233253 -23.881640 18.966863 -1.619553 11.997068 8.271345 -27.243614 24.267786 122.752008 37.240062 129.035020 -49.772571 39.169062 -4.575927 
0.769257 0.544255 1.004580 85.021024 -15.497288 98.455220 -17.275669 2.294612 -14.110222 -5.470461 1.023821 8.169408 3.433543 13.339686 -8.688947 0.000000 -0.000000 0.000000 -31.259005 -14.241610 -12.912519 -0.794066 -4.670107 2.877851 11.465604 -7.584285 2.329255 0.000000 -0.000000 0.000000 15.190824 -1.254702 1.561837 12.550634 -8.916132 3.456617 4.010157 3.956601 -8.821913 -2.994336 13.460988 10.248537 -2.792907 36.742221 -2.560223 -27.414917 -1.481882 7.854793 -24.113148 18.325750 31.050447 -87.687037 -43.461068 111.333742 57.015218 -25.231427 -23.874079 18.964631 -1.621939 12.008707 8.245732 -27.231087 24.267441 122.778622 37.204139 129.064487 -49.772129 39.175513 -4.573306 
0.769302 0.544312 1.004592 85.013580 -15.516728 98.440524 -17.299627 2.288773 -14.096751 -5.472238 1.033218 8.187297 3.446591 13.341566 -8.702501 0.000000 -0.000000 0.000000 -31.286584 -14.241629 -12.904094 -0.798234 -4.669514 2.895579 11.466443 -7.566485 2.319436 0.000000 -0.000000 0.000000 15.229364 -1.252439 1.614254 12.563424 -8.902369 3.483846 4.016640 3.975248 -8.831493 -2.979139 13.429746 10.262944 -2.824984 36.699364 -2.588792 -27.418348 -1.461380 7.853676 -24.160129 18.338950 31.020786 -87.657789 -43.520059 111.344226 56.992273 -25.244370 -23.891630 18.967817 -1.616923 12.036066 8.237720 -27.237763 24.269786 122.815155 37.200177 129.127870 -49.743341 39.197189 -4.546853 
